:version 1.10
:name ASF
:units
  mass 1
  length 1
  angle deg
:documentation
  ASF file generated by Kaydara
:root
  axis xyz
  order  tx ty tz rx ry rz
  position 0 0 0
  orientation 0 0 0
:bonedata
  begin
    id 1
    name lfemurDummy
    direction 0.61522 -0.761478 0.204097
    length 5.68318
    axis 0 -0 0 xyz
  end
  begin
    id 2
    name lfemur
    direction 0.34202 -0.939693 -5.84747e-008
    length 16.9147
    axis 0 -0 20 xyz
    dof rx ry rz
    limits( -inf , inf )
( -inf , inf )
( -inf , inf )

  end
  begin
    id 3
    name ltibia
    direction 0.34202 -0.939693 1.20839e-009
    length 18.0532
    axis 0 -0 20 xyz
    dof rz ry rx
    limits( -inf , inf )
( -inf , inf )
( -inf , inf )

  end
  begin
    id 4
    name lfoot
    direction 0.0841971 -0.23133 0.969225
    length 5.23822
    axis -90 7.62852e-016 20 xyz
    dof ry rx rz
    limits( -inf , inf )
( -inf , inf )
( -inf , inf )

  end
  begin
    id 5
    name ltoes
    direction 0 0 0
    length 0
    axis 0 0 0 xyz
    dof rz ry rx
    limits( -inf , inf )
( -inf , inf )
( -inf , inf )

  end
  begin
    id 6
    name rfemurDummy
    direction -0.625247 -0.75382 0.202044
    length 5.74091
    axis 0 -0 0 xyz
  end
  begin
    id 7
    name rfemur
    direction -0.34202 -0.939693 -1.47013e-008
    length 16.4922
    axis 0 -0 -20 xyz
    dof rx ry rz
    limits( -inf , inf )
( -inf , inf )
( -inf , inf )

  end
  begin
    id 8
    name rtibia
    direction -0.34202 -0.939693 -7.74345e-010
    length 18.2421
    axis 0 -0 -20 xyz
    dof rz ry rx
    limits( -inf , inf )
( -inf , inf )
( -inf , inf )

  end
  begin
    id 9
    name rfoot
    direction -0.124331 -0.341598 0.931586
    length 5.45787
    axis -90 -7.62852e-016 -20 xyz
    dof ry rx rz
    limits( -inf , inf )
( -inf , inf )
( -inf , inf )

  end
  begin
    id 10
    name rtoes
    direction 0 0 0
    length 0
    axis 0 0 0 xyz
    dof rz ry rx
    limits( -inf , inf )
( -inf , inf )
( -inf , inf )

  end
  begin
    id 11
    name lowerbackDummy
    direction 0 0 0
    length 0
    axis 0 -0 0 xyz
  end
  begin
    id 12
    name lowerback
    direction -0.0218484 0.994884 -0.0986304
    length 4.45607
    axis 0 -0 0 xyz
    dof rx ry rz
    limits( -inf , inf )
( -inf , inf )
( -inf , inf )

  end
  begin
    id 13
    name upperback
    direction -0.00973057 0.999717 -0.0217111
    length 4.47449
    axis 0 -0 0 xyz
    dof rx ry rz
    limits( -inf , inf )
( -inf , inf )
( -inf , inf )

  end
  begin
    id 14
    name thorax
    direction -0.000928171 0.999699 0.0245198
    length 4.50973
    axis 0 -0 0 xyz
    dof rx ry rz
    limits( -inf , inf )
( -inf , inf )
( -inf , inf )

  end
  begin
    id 15
    name rclavicle
    direction -0.9009 0.425937 -0.0834055
    length 7.28587
    axis 0 -0 0 xyz
    dof rx ry rz
    limits( -inf , inf )
( -inf , inf )
( -inf , inf )

  end
  begin
    id 16
    name rhumerus
    direction -1 -2.23604e-007 -1.42637e-007
    length 13.5704
    axis 180 30 90 xyz
    dof rx ry rz
    limits( -inf , inf )
( -inf , inf )
( -inf , inf )

  end
  begin
    id 17
    name rradius
    direction -1 5.68281e-008 -4.4952e-007
    length 8.06782
    axis 180 30 90 xyz
    dof rz ry rx
    limits( -inf , inf )
( -inf , inf )
( -inf , inf )

  end
  begin
    id 18
    name rwrist
    direction -1 1.51393e-007 1.38143e-007
    length 4.03391
    axis -90 -90 0 xyz
    dof rz rx ry
    limits( -inf , inf )
( -inf , inf )
( -inf , inf )

  end
  begin
    id 19
    name rthumb
    direction 0 0 0
    length 0
    axis 0 0 0 xyz
    dof ry rx rz
    limits( -inf , inf )
( -inf , inf )
( -inf , inf )

  end
  begin
    id 20
    name rhand
    direction -1 -3.34077e-007 -5.59631e-007
    length 1.29744
    axis -90 -90 0 xyz
    dof ry rx rz
    limits( -inf , inf )
( -inf , inf )
( -inf , inf )

  end
  begin
    id 21
    name rfingers
    direction 0 0 0
    length 0
    axis 0 0 0 xyz
    dof rz ry rx
    limits( -inf , inf )
( -inf , inf )
( -inf , inf )

  end
  begin
    id 22
    name lclavicle
    direction 0.940017 0.332249 -0.0773232
    length 8.29589
    axis 0 -0 0 xyz
    dof rx ry rz
    limits( -inf , inf )
( -inf , inf )
( -inf , inf )

  end
  begin
    id 23
    name lhumerus
    direction 1 7.41158e-008 -1.44768e-008
    length 12.0042
    axis 180 -30 -90 xyz
    dof rx ry rz
    limits( -inf , inf )
( -inf , inf )
( -inf , inf )

  end
  begin
    id 24
    name lradius
    direction 1 -1.32972e-007 3.10821e-007
    length 8.1902
    axis 180 -30 -90 xyz
    dof rz ry rx
    limits( -inf , inf )
( -inf , inf )
( -inf , inf )

  end
  begin
    id 25
    name lwrist
    direction 1 3.08957e-007 4.01394e-007
    length 4.09509
    axis -90 90 0 xyz
    dof rz rx ry
    limits( -inf , inf )
( -inf , inf )
( -inf , inf )

  end
  begin
    id 26
    name lthumb
    direction 0 0 0
    length 0
    axis 0 0 0 xyz
    dof ry rx rz
    limits( -inf , inf )
( -inf , inf )
( -inf , inf )

  end
  begin
    id 27
    name lhand
    direction 1 -1.64125e-007 -6.99514e-007
    length 1.37229
    axis -90 90 0 xyz
    dof ry rx rz
    limits( -inf , inf )
( -inf , inf )
( -inf , inf )

  end
  begin
    id 28
    name lfingers
    direction 0 0 0
    length 0
    axis 0 0 0 xyz
    dof rz ry rx
    limits( -inf , inf )
( -inf , inf )
( -inf , inf )

  end
  begin
    id 29
    name lowerneck
    direction -0.030798 0.998024 0.0547665
    length 3.93918
    axis 0 -0 0 xyz
    dof rx ry rz
    limits( -inf , inf )
( -inf , inf )
( -inf , inf )

  end
  begin
    id 30
    name upperneck
    direction 0.0531588 0.996611 -0.0627736
    length 3.95491
    axis 0 -0 0 xyz
    dof rx ry rz
    limits( -inf , inf )
( -inf , inf )
( -inf , inf )

  end
  begin
    id 31
    name head
    direction 0 0 0
    length 0
    axis 0 0 0 xyz
    dof rx ry rz
    limits( -inf , inf )
( -inf , inf )
( -inf , inf )

  end
:hierarchy
  begin
    root lfemurDummy rfemurDummy lowerbackDummy
    lfemurDummy lfemur
    lfemur ltibia
    ltibia lfoot
    lfoot ltoes
    rfemurDummy rfemur
    rfemur rtibia
    rtibia rfoot
    rfoot rtoes
    lowerbackDummy lowerback
    lowerback upperback
    upperback thorax
    thorax rclavicle lclavicle lowerneck
    rclavicle rhumerus
    rhumerus rradius
    rradius rwrist
    rwrist rthumb rhand
    rhand rfingers
    lclavicle lhumerus
    lhumerus lradius
    lradius lwrist
    lwrist lthumb lhand
    lhand lfingers
    lowerneck upperneck
    upperneck head
  end

:SAMPLES-PER-SECOND 30
:FULLY-SPECIFIED
:DEGREES
10
root  -0.3456866647 40.546222 5.331911252 169.0409851 -75.20600128 -166.1329956
lowerback  13.37040043 4.916500092 -4.725870132
upperback  4.399419785 5.325510025 -4.336629868
thorax  -2.845099926 2.486419916 -2.718329906
lowerneck  -1.03429997 9.656749725 -5.138279915
upperneck  11.44639969 12.25080013 7.620920181
head  3.062119961 6.050310135 3.692869902
lclavicle  0 -9.442270133e-015 7.951389973e-016
lhumerus  8.361330032 8.142910004 59.07649994
lradius  2.956607888e-031 -1.930625244e-031 146.8560028
lwrist  -1.412450015e-030 2.427648464e-031 32.56669998
lhand  -1.496451383e-031 -27.76390076 20.11240005
lfingers  90 7.125020027 -90
lthumb  89.89689403 5.08795885 91.16245106
rclavicle  0 -9.442270133e-015 7.951389973e-016
rhumerus  4.053860188 18.72800064 -79.74810028
rradius  -2.68112207e-031 2.297918293e-031 139.401001
rwrist  1.412450015e-030 -0 -14.57019997
rhand  -7.920061211e-032 -33.2840004 9.303460121
rfingers  -90 -7.125020027 -90
rthumb  -92.93752616 -24.25625642 -97.11982154
rfemur  -12.8593998 16.15719986 3.763050079
rtibia  -0 0 36.95489883
rfoot  -0 -13.01039982 -9.356019974
rtoes  5.373923086 19.29304026 -105.8922705
lfemur  -28.01189995 -2.369729996 4.982419968
ltibia  -0 0 47.15589905
lfoot  4.414422715e-032 0.876406014 -0.8866329789
ltoes  -4.250644065 -19.5611806 -102.515957
11
root  -0.1899935598 40.55777722 5.240844366 169.0629883 -75.32499695 -165.8760071
lowerback  13.37849998 4.73153019 -4.658979893
upperback  4.409110069 5.096139908 -4.291210175
thorax  -2.84029007 2.374409914 -2.670540094
lowerneck  -0.7945020199 9.681400299 -5.079959869
upperneck  11.21930027 12.28240013 7.582079887
head  2.94314003 6.065110207 3.639569998
lclavicle  0 -9.442270133e-015 7.951389973e-016
lhumerus  9.149809837 7.556109905 58.38990021
lradius  2.951982827e-031 -1.937689713e-031 146.7189941
lwrist  -1.412450015e-030 -0 31.63610077
lhand  -1.496451383e-031 -27.76390076 20.11240005
lfingers  90 7.125020027 -90
lthumb  89.89689403 5.08795885 91.16245106
rclavicle  0 -9.442270133e-015 7.951389973e-016
rhumerus  4.942279816 17.75869942 -79.10220337
rradius  -2.70674122e-031 2.267685164e-031 140.0440063
rwrist  1.412450015e-030 -1.765562519e-031 -16.08979988
rhand  -7.920061211e-032 -33.2840004 9.303460121
rfingers  -90 -7.125020027 -90
rthumb  -92.93752616 -24.25625642 -97.11982154
rfemur  -13.3210001 15.7329998 3.795559883
rtibia  -0 0 38.77870178
rfoot  -0 -12.95470047 -9.186039925
rtoes  5.373923086 19.29304026 -105.8922705
lfemur  -28.81520081 -1.839980006 4.961550236
ltibia  -0 0 47.88779831
lfoot  4.413921915e-032 0.1524150074 -1.33228004
ltoes  -4.250644065 -19.5611806 -102.515957
12
root  -0.03290977769 40.5495561 5.151488837 169.0669861 -75.46199799 -165.75
lowerback  13.50399971 4.539999962 -4.529019833
upperback  4.417439938 4.854050159 -4.265659809
thorax  -2.893429995 2.255820036 -2.685980082
lowerneck  -0.5306130052 9.727350235 -5.070310116
upperneck  11.06519985 12.33329964 7.606919765
head  2.836869955 6.08769989 3.617939949
lclavicle  0 -9.442270133e-015 7.951389973e-016
lhumerus  9.599320412 6.885809898 57.86330032
lradius  2.945643071e-031 -1.947313774e-031 146.5319977
lwrist  -7.062250077e-031 5.517382873e-032 30.30719948
lhand  -1.496451383e-031 -27.76390076 20.11240005
lfingers  90 7.125020027 -90
lthumb  89.89689403 5.08795885 91.16245106
rclavicle  0 -9.442270133e-015 7.951389973e-016
rhumerus  5.843140125 16.62809944 -78.59200287
rradius  -2.7286973e-031 2.241217321e-031 140.602005
rwrist  1.412450015e-030 1.765562519e-031 -16.88229942
rhand  -7.920061211e-032 -33.2840004 9.303460121
rfingers  -90 -7.125020027 -90
rthumb  -92.93752616 -24.25625642 -97.11982154
rfemur  -13.62590027 15.12160015 3.830240011
rtibia  -0 0 40.80849838
rfoot  -0 -12.37269974 -8.739310265
rtoes  5.373923086 19.29304026 -105.8922705
lfemur  -29.58939934 -1.253620028 4.81896019
ltibia  -0 0 49.00640106
lfoot  5.518079641e-032 -0.9105259776 -1.465610027
ltoes  -4.250644065 -19.5611806 -102.515957
13
root  0.1204299997 40.50599947 5.066622336 169.2829895 -75.56400299 -166.0490112
lowerback  13.82859993 4.409009933 -4.365550041
upperback  4.449580193 4.676300049 -4.25094986
thorax  -3.025000095 2.166980028 -2.755820036
lowerneck  -0.4777509868 9.721289635 -5.124269962
upperneck  11.12220001 12.3185997 7.616690159
head  2.843679905 6.076230049 3.629529953
lclavicle  0 -9.442270133e-015 7.951389973e-016
lhumerus  9.72148037 6.245029926 57.66989899
lradius  2.936605053e-031 -1.960916826e-031 146.2669983
lwrist  -7.062250077e-031 3.310429724e-032 29.47800064
lhand  -1.496451383e-031 -27.76390076 20.11240005
lfingers  90 7.125020027 -90
lthumb  89.89689403 5.08795885 91.16245106
rclavicle  0 -9.442270133e-015 7.951389973e-016
rhumerus  6.752260208 15.51109982 -78.07820129
rradius  -2.747067552e-031 2.218662638e-031 141.0740051
rwrist  0 -0 -17.91570091
rhand  -7.920061211e-032 -33.2840004 9.303460121
rfingers  -90 -7.125020027 -90
rthumb  -92.93752616 -24.25625642 -97.11982154
rfemur  -13.70409966 14.46020031 3.759380102
rtibia  -0 0 42.92269897
rfoot  -0 -11.78279972 -8.119680405
rtoes  5.373923086 19.29304026 -105.8922705
lfemur  -30.20199966 -0.4619350135 4.447040081
ltibia  -0 0 50.47999954
lfoot  4.416815257e-032 -2.079580069 -1.637959957
ltoes  -4.250644065 -19.5611806 -102.515957
14
root  0.2585933434 40.43955465 4.985088814 169.4859924 -75.60099792 -166.4079895
lowerback  14.08380032 4.325650215 -4.310679913
upperback  4.502369881 4.563720226 -4.09844017
thorax  -3.116940022 2.110650063 -2.624289989
lowerneck  -0.5506709814 9.716400146 -5.283599854
upperneck  11.3767004 12.31369972 7.539120197
head  2.940030098 6.062210083 3.649830103
lclavicle  0 -9.442270133e-015 7.951389973e-016
lhumerus  9.386810303 5.642829895 57.88150024
lradius  2.931392856e-031 -1.968700069e-031 146.1150055
lwrist  -7.062250077e-031 3.310429724e-032 29.00169945
lhand  -1.496451383e-031 -27.76390076 20.11240005
lfingers  90 7.125020027 -90
lthumb  89.89689403 5.08795885 91.16245106
rclavicle  0 -9.442270133e-015 7.951389973e-016
rhumerus  7.700769901 14.71269989 -77.47200012
rradius  -2.765136165e-031 2.196102463e-031 141.5429993
rwrist  -7.062250077e-031 -0 -19.34020042
rhand  -7.920061211e-032 -33.2840004 9.303460121
rfingers  -90 -7.125020027 -90
rthumb  -92.93752616 -24.25625642 -97.11982154
rfemur  -13.60340023 14.38360023 3.712069988
rtibia  -0 0 44.97290039
rfoot  -0 -11.46030045 -7.442220211
rtoes  5.373923086 19.29304026 -105.8922705
lfemur  -30.73699951 0.6280789971 3.968060017
ltibia  -0 0 52.22679901
lfoot  4.420474549e-032 -3.123790026 -1.650030017
ltoes  -4.250644065 -19.5611806 -102.515957
